Realizing that teenage mom Tina is about to gas herself and her new child, Tina's young boyfriend grabs the infant and takes it to the streets of Lisbon. What he does next comprises the bulk of this extremely downbeat, minimalist drama from Portuguese director Pedro Costa. Once in the street, the boyfriend attempts to sell the child. When that fails, he leaves it at a nurse's house. That doesn't work out either so the youth gives the baby to a streetwalker. Meanwhile Tina and her friend try to get the baby back. When they fail, they decide to get revenge upon the boyfriend.

   General
      Complete name : Ossos.avi
      Format : AVI
      Format/Info : Audio Video Interleave
      File size : 1 012 MiB
      Duration : 1h 33mn
      Overall bit rate : 1 514 Kbps
      Writing application : VirtualDubMod 1.5.4.1 (build 2178/release)
      Writing library : VirtualDubMod build 2178/release
   Video #0
      ID : 0
      Format : MPEG-4 Visual
      Format profile : AdvancedSimple@L5
      Format settings, BVOP : Yes
      Format settings, QPel : No
      Format settings, GMC : No warppoints
      Format settings, Matrix : Custom
      Codec ID : XVID
      Codec ID/Hint : XviD
      Duration : 1h 33mn
      Bit rate : 1 059 Kbps
      Width : 640 pixels
      Height : 400 pixels
      Display aspect ratio : 1.600
      Frame rate : 25.000 fps
      Resolution : 24 bits
      Colorimetry : 4:2:0
      Scan type : Progressive
      Bits/(Pixel*Frame) : 0.165
      Stream size : 708 MiB (70%)
      Writing library : XviD 1.2.0.dev47 (UTC 2006-11-01)
   Audio #1
      ID : 1
      Format : AC-3
      Format/Info : Audio Coding 3
      Codec ID : 2000
      Duration : 1h 33mn
      Bit rate mode : Constant
      Bit rate : 448 Kbps
      Channel(s) : 6 channels
      Channel positions : Front: L C R, Surround: L R, LFE
      Sampling rate : 48.0 KHz
      Stream size : 299 MiB (30%)
      Alignment : Split accross interleaves
      Interleave, duration : 96 ms (2.40 video frames)
      Interleave, preload duration : 96 ms
      Language : portuguese

IMDB: tt0119844

Portuguese audio; English, Spanish and Portuguese (for the dialect parts) subtitles

Posted originally at Secret-Cinema by Fellow Traveler